<!-- Copyright 2018 _y_s -->
<svg xmlns="http://www.w3.org/2000/svg" viewBox="-16 -16 32 32">
	<defs>
		<linearGradient id="grad1" x1="1" y1="0" x2="0" y2=".866">
			<stop offset="0" stop-color="#fff" stop-opacity="1"></stop>
			<stop offset="1" stop-color="#fff" stop-opacity=".8"></stop>
		</linearGradient>
		<linearGradient id="grad2" x1="0" y1="0" x2="0" y2="1">
			<stop offset="0" stop-color="#fff" stop-opacity=".8"></stop>
			<stop offset="1" stop-color="#fff" stop-opacity=".6"></stop>
		</linearGradient>
		<linearGradient id="grad3" x1="0" y1="0" x2="1" y2="1">
			<stop offset="0" stop-color="#fff" stop-opacity=".6"></stop>
			<stop offset="1" stop-color="#fff" stop-opacity=".4"></stop>
		</linearGradient>
		<linearGradient id="grad4" x1="0" y1="1" x2="1" y2="0">
			<stop offset="0" stop-color="#fff" stop-opacity=".4"></stop>
			<stop offset="1" stop-color="#fff" stop-opacity=".2"></stop>
		</linearGradient>
		<linearGradient id="grad5" x1="0" y1="1" x2="0" y2="0">
			<stop offset="0" stop-color="#fff" stop-opacity=".2"></stop>
			<stop offset="1" stop-color="#fff" stop-opacity="0"></stop>
		</linearGradient>
		<style>path{fill:none}</style>
	</defs>
	<g>
		<path d="M0-8A8,8,0,0,0-6.93-4" stroke="url(#grad1)" />
		<path d="M-6.93-4A8,8,0,0,0-6.93,4" stroke="url(#grad2)" />
		<path d="M-6.93,4A8,8,0,0,0,0,8" stroke="url(#grad3)" />
		<path d="M0,8A8,8,0,0,0,6.93,4" stroke="url(#grad4)" />
		<path d="M6.93,4A8,8,0,0,0,6.93-4" stroke="url(#grad5)" />
		<animateTransform attributeName="transform" type="rotate" dur="2s" values="0;360" repeatCount="indefinite" />
	</g>
</svg>